<svg id="visual" viewBox="0 0 900 600" width="900" height="600" xmlns="http://www.w3.org/2000/svg" xmlns:xlink="http://www.w3.org/1999/xlink" version="1.1"><path d="M0 324L21.5 321.2C43 318.3 86 312.7 128.8 323C171.7 333.3 214.3 359.7 257.2 377.8C300 396 343 406 385.8 411.8C428.7 417.7 471.3 419.3 514.2 402.3C557 385.3 600 349.7 642.8 352.5C685.7 355.3 728.3 396.7 771.2 396.2C814 395.7 857 353.3 878.5 332.2L900 311L900 601L878.5 601C857 601 814 601 771.2 601C728.3 601 685.7 601 642.8 601C600 601 557 601 514.2 601C471.3 601 428.7 601 385.8 601C343 601 300 601 257.2 601C214.3 601 171.7 601 128.8 601C86 601 43 601 21.5 601L0 601Z" fill="#0066ff"></path><path d="M0 421L21.5 422.3C43 423.7 86 426.3 128.8 424C171.7 421.7 214.3 414.3 257.2 407.3C300 400.3 343 393.7 385.8 400.7C428.7 407.7 471.3 428.3 514.2 433C557 437.7 600 426.3 642.8 415.7C685.7 405 728.3 395 771.2 401.8C814 408.7 857 432.3 878.5 444.2L900 456L900 601L878.5 601C857 601 814 601 771.2 601C728.3 601 685.7 601 642.8 601C600 601 557 601 514.2 601C471.3 601 428.7 601 385.8 601C343 601 300 601 257.2 601C214.3 601 171.7 601 128.8 601C86 601 43 601 21.5 601L0 601Z" fill="#0056cd"></path><path d="M0 442L21.5 449.5C43 457 86 472 128.8 469.8C171.7 467.7 214.3 448.3 257.2 449.8C300 451.3 343 473.7 385.8 481.7C428.7 489.7 471.3 483.3 514.2 481C557 478.7 600 480.3 642.8 468.3C685.7 456.3 728.3 430.7 771.2 422.3C814 414 857 423 878.5 427.5L900 432L900 601L878.5 601C857 601 814 601 771.2 601C728.3 601 685.7 601 642.8 601C600 601 557 601 514.2 601C471.3 601 428.7 601 385.8 601C343 601 300 601 257.2 601C214.3 601 171.7 601 128.8 601C86 601 43 601 21.5 601L0 601Z" fill="#00459c"></path><path d="M0 510L21.5 505.8C43 501.7 86 493.3 128.8 496.5C171.7 499.7 214.3 514.3 257.2 524C300 533.7 343 538.3 385.8 540.2C428.7 542 471.3 541 514.2 527.2C557 513.3 600 486.7 642.8 476.7C685.7 466.7 728.3 473.3 771.2 482.3C814 491.3 857 502.7 878.5 508.3L900 514L900 601L878.5 601C857 601 814 601 771.2 601C728.3 601 685.7 601 642.8 601C600 601 557 601 514.2 601C471.3 601 428.7 601 385.8 601C343 601 300 601 257.2 601C214.3 601 171.7 601 128.8 601C86 601 43 601 21.5 601L0 601Z" fill="#05346c"></path><path d="M0 568L21.5 561.8C43 555.7 86 543.3 128.8 533C171.7 522.7 214.3 514.3 257.2 512C300 509.7 343 513.3 385.8 513C428.7 512.7 471.3 508.3 514.2 515.3C557 522.3 600 540.7 642.8 551.5C685.7 562.3 728.3 565.7 771.2 564C814 562.3 857 555.7 878.5 552.3L900 549L900 601L878.5 601C857 601 814 601 771.2 601C728.3 601 685.7 601 642.8 601C600 601 557 601 514.2 601C471.3 601 428.7 601 385.8 601C343 601 300 601 257.2 601C214.3 601 171.7 601 128.8 601C86 601 43 601 21.5 601L0 601Z" fill="#0f223f"></path></svg>