<svg id="visual" viewBox="0 0 900 600" width="900" height="600" xmlns="http://www.w3.org/2000/svg" xmlns:xlink="http://www.w3.org/1999/xlink" version="1.1"><path d="M0 468L7.8 467.7C15.7 467.3 31.3 466.7 47.2 459.3C63 452 79 438 94.8 435.5C110.7 433 126.3 442 142 441.8C157.7 441.7 173.3 432.3 189.2 428.5C205 424.7 221 426.3 236.8 433.7C252.7 441 268.3 454 284.2 461.2C300 468.3 316 469.7 331.8 475C347.7 480.3 363.3 489.7 379 481.3C394.7 473 410.3 447 426.2 448.2C442 449.3 458 477.7 473.8 480.8C489.7 484 505.3 462 521 450.5C536.7 439 552.3 438 568.2 441.3C584 444.7 600 452.3 615.8 469.3C631.7 486.3 647.3 512.7 663.2 522.7C679 532.7 695 526.3 710.8 514.5C726.7 502.7 742.3 485.3 758 469.5C773.7 453.7 789.3 439.3 805.2 448C821 456.7 837 488.3 852.8 504.2C868.7 520 884.3 520 892.2 520L900 520L900 601L892.2 601C884.3 601 868.7 601 852.8 601C837 601 821 601 805.2 601C789.3 601 773.7 601 758 601C742.3 601 726.7 601 710.8 601C695 601 679 601 663.2 601C647.3 601 631.7 601 615.8 601C600 601 584 601 568.2 601C552.3 601 536.7 601 521 601C505.3 601 489.7 601 473.8 601C458 601 442 601 426.2 601C410.3 601 394.7 601 379 601C363.3 601 347.7 601 331.8 601C316 601 300 601 284.2 601C268.3 601 252.7 601 236.8 601C221 601 205 601 189.2 601C173.3 601 157.7 601 142 601C126.3 601 110.7 601 94.8 601C79 601 63 601 47.2 601C31.3 601 15.7 601 7.8 601L0 601Z" fill="#094470" stroke-linecap="round" stroke-linejoin="miter"></path></svg>